<svg xmlns:dc="http://purl.org/dc/elements/1.1/" xmlns:cc="http://creativecommons.org/ns#" xmlns:rdf="http://www.w3.org/1999/02/22-rdf-syntax-ns#" xmlns:svg="http://www.w3.org/2000/svg" xmlns="http://www.w3.org/2000/svg" xmlns:sodipodi="http://sodipodi.sourceforge.net/DTD/sodipodi-0.dtd" xmlns:inkscape="http://www.inkscape.org/namespaces/inkscape" version="1.1" id="po_voorkeur_lang_copy_2" x="0px" y="0px" width="200px" height="50px" viewBox="0 0 532.37298 153.602" enable-background="new 0 0 841.89 595.275" xml:space="preserve" inkscape:version="0.91 r13725" sodipodi:docname="pv-logo.svg"><metadata id="metadata4358"><rdf:rdf><cc:work rdf:about=""><dc:format>image/svg+xml</dc:format><dc:type rdf:resource="http://purl.org/dc/dcmitype/StillImage"></dc:type><dc:title></dc:title></cc:work></rdf:rdf></metadata><defs id="defs4356"></defs><sodipodi:namedview pagecolor="#ffffff" bordercolor="#666666" borderopacity="1" objecttolerance="10" gridtolerance="10" guidetolerance="10" inkscape:pageopacity="0" inkscape:pageshadow="2" inkscape:window-width="1920" inkscape:window-height="1009" id="namedview4354" showgrid="false" fit-margin-top="10" fit-margin-left="0" fit-margin-right="0" fit-margin-bottom="34" inkscape:zoom="1.4648691" inkscape:cx="75.187447" inkscape:cy="58.66049" inkscape:window-x="0" inkscape:window-y="24" inkscape:window-maximized="1" inkscape:current-layer="po_voorkeur_lang_copy_2"></sodipodi:namedview><g id="g4270" transform="translate(-147.105,-202.696)"><g id="g4272"><path d="m 641.431,246.197 c 21.016,0 38.047,17.036 38.047,38.05 0,21.014 -17.031,38.051 -38.047,38.051 l -454.008,0 c -22.737,0 -40.318,-16.729 -40.318,-38.051 0,-21.322 17.581,-38.05 40.318,-38.05 l 454.008,0 z" id="path4274" inkscape:connector-curvature="0" style="fill:#f9b200"></path></g><path d="m 432.089,250.227 -241.09,0 c -25.009,0 -38.937,14.972 -38.937,33.744 0,18.772 15.403,34.315 38.937,34.315 l 243.045,0 38.092,-35.207 0,-70.383 -40.047,37.531 z m 38.045,31.973 -36.143,33.31 0,-64.378 36.143,-33.824 0,64.892 z" id="path4276" inkscape:connector-curvature="0" style="fill:#0d134a"></path><g id="g4278"><g id="g4280"><polygon points="502.931,295.149 513.862,265.271 520.669,267.522 506.171,304.048 499.581,304.048 486.015,267.522 486.015,267.522 493.099,265.271 502.821,295.149 " id="polygon4282" style="fill:#ffffff"></polygon></g></g><g id="g4284"><g id="g4286"><polygon points="547.915,304.048 540.884,304.048 541.214,266.039 541.214,266.039 548.243,266.039 " id="polygon4288" style="fill:#ffffff"></polygon></g></g><g id="g4290"><g id="g4292"><polygon points="596.853,266.039 596.796,272.081 586.308,272.081 586.032,304.048 579.001,304.048 579.276,272.081 579.276,272.081 568.62,272.081 568.675,266.039 " id="polygon4294" style="fill:#ffffff"></polygon></g></g><g id="g4296"><g id="g4298"><path d="m 616.751,304.815 -6.535,-1.977 14.609,-36.8 6.479,0 13.566,36.8 -6.865,1.977 -3.734,-10.873 -13.236,0 -4.284,10.873 0,0 z m 11.203,-31.416 -0.109,0 -4.777,14.83 9.279,0 -4.393,-14.83 0,0 z" id="path4300" inkscape:connector-curvature="0" style="fill:#ffffff"></path></g></g><g id="g4302"><path d="m 184.73,266.039 10.71,0 c 9.94,0 13.896,4.503 13.896,11.589 0,7.799 -6.481,11.535 -13.842,11.535 l -3.899,0 -0.055,14.885 -7.195,0 0.385,-38.009 0,0 z m 10.545,17.411 c 3.789,0 6.7,-2.307 6.7,-5.877 0,-2.307 -1.317,-5.82 -6.426,-5.82 l -3.735,0 -0.109,11.697 3.57,0 0,0 z" id="path4304" inkscape:connector-curvature="0" style="fill:#ffffff"></path></g><g id="g4306"><path d="m 247.222,265.271 c 12.305,0 20.378,8.677 20.378,19.772 0,11.094 -8.843,19.771 -20.378,19.771 -11.533,0 -20.377,-8.236 -20.377,-19.771 0,-11.095 9.063,-19.772 20.377,-19.772 l 0,0 z m 0,33.832 c 7.855,0 13.019,-6.535 13.019,-14.059 0,-8.074 -5.163,-14.061 -13.019,-14.061 -6.371,0 -13.016,5.217 -13.016,14.061 0.001,8.293 5.163,14.059 13.016,14.059 l 0,0 z" id="path4308" inkscape:connector-curvature="0" style="fill:#ffffff"></path></g><g id="g4310"><path d="m 289.745,266.039 12.03,0 c 9.171,0 12.906,4.944 12.906,10.985 0,4.832 -2.911,8.293 -7.359,9.887 l 10.819,14.17 -6.261,3.734 -10.547,-14.664 c -0.659,-0.936 -1.483,-1.318 -2.526,-1.318 l -2.196,0 -0.055,15.215 -7.195,0 0.384,-38.009 0,0 z m 11.315,17.083 c 2.086,0 6.262,-0.934 6.262,-5.877 0,-3.627 -2.856,-5.492 -6.427,-5.492 l -4.065,0 -0.109,11.369 4.339,0 0,0 z" id="path4312" inkscape:connector-curvature="0" style="fill:#ffffff"></path></g><g id="g4314"><polygon points="365.486,266.039 365.431,272.081 354.941,272.081 354.667,304.048 347.636,304.048 347.91,272.081 347.91,272.081 337.254,272.081 337.309,266.039 " id="polygon4316" style="fill:#ffffff"></polygon></g><g id="g4318"><path d="m 388.577,304.815 -6.535,-1.977 14.609,-36.8 6.482,0 13.565,36.8 -6.864,1.977 -3.736,-10.873 -13.236,0 -4.285,10.873 0,0 z m 11.207,-31.416 -0.109,0 -4.779,14.83 9.281,0 -4.393,-14.83 0,0 z" id="path4320" inkscape:connector-curvature="0" style="fill:#ffffff"></path></g><polygon points="433.991,315.509 470.134,282.2 470.134,217.308 433.991,251.132 " id="polygon4322" style="fill:#ffffff"></polygon></g></svg>
